<svg xmlns="http://www.w3.org/2000/svg" version="1.1" xmlns:xlink="http://www.w3.org/1999/xlink" width="1500" height="1500" viewBox="0 0 1500 1500"><rect width="1500" height="1500" x="0" y="0" id="background" stroke="transparent" fill="#214d73"></rect><svg xml:space="preserve" width="1000" height="1000" data-version="2" data-id="lg_ocvoFJkpLjBen4FQvP" viewBox="0 0 537 293" x="250" y="250"><rect width="100%" height="100%" fill="transparent"></rect><path fill="#fff" d="M110.905 278.45q-5.17 10.34-13.71 10.34-8.55 0-8.55-8.75 0-5.36 5.17-11.72 10.33-12.32 19.67-28.42l10.14-18.09L5.575 5.4h115.86l56.84 119.83 50.87-90.42q5.57-10.33 9.54-20.97 3.98-10.63 10.53-10.63 8.15 0 8.15 8.15 0 4.77-3.57 10.93l-135.94 242.45q-2.18 3.98-3.57 6.56z"></path><rect width="251.79" height="285.58" x="-125.89" y="-142.79" fill="none" rx="0" ry="0" transform="translate(131.97 146.5)"></rect><path fill="#fff" d="M460.465 70.78q69.96 0 69.96 67.97V286.6h-85.46V93.24q-3.57-2.39-9.44-2.39-5.86 0-12.22 2.78-6.36 2.79-13.31 7.75-14.91 10.93-26.43 27.43V286.6h-85.46V5.4h85.46v102.54q33.98-37.16 76.9-37.16"></path><rect width="232.32" height="281.2" x="-116.16" y="-140.6" fill="none" rx="0" ry="0" transform="translate(414.76 146.5)"></rect></svg></svg>